<svg width="260" height="178" viewBox="0 0 260 178" fill="none" xmlns="http://www.w3.org/2000/svg">
<path d="M32.0013 30.0837C38.1225 30.0837 43.0846 25.1215 43.0846 19.0003C43.0846 12.8792 38.1225 7.91699 32.0013 7.91699C25.8801 7.91699 20.918 12.8792 20.918 19.0003C20.918 25.1215 25.8801 30.0837 32.0013 30.0837Z" fill="#FFC107"/>
<path d="M31.9987 31.6663C25.0146 31.6663 19.332 25.9838 19.332 18.9997C19.332 12.0156 25.0146 6.33301 31.9987 6.33301C38.9828 6.33301 44.6654 12.0156 44.6654 18.9997C44.6654 25.9838 38.9828 31.6663 31.9987 31.6663ZM31.9987 8.70801C26.324 8.70801 21.707 13.325 21.707 18.9997C21.707 24.6743 26.324 29.2913 31.9987 29.2913C37.6734 29.2913 42.2904 24.6743 42.2904 18.9997C42.2904 13.325 37.6734 8.70801 31.9987 8.70801Z" fill="black"/>
<path d="M32 4.75C31.3445 4.75 30.8125 4.218 30.8125 3.5625V1.1875C30.8125 0.532 31.3445 0 32 0C32.6555 0 33.1875 0.532 33.1875 1.1875V3.5625C33.1875 4.218 32.6555 4.75 32 4.75Z" fill="black"/>
<path d="M32 4.75C31.3445 4.75 30.8125 4.218 30.8125 3.5625V1.1875C30.8125 0.532 31.3445 0 32 0C32.6555 0 33.1875 0.532 33.1875 1.1875V3.5625C33.1875 4.218 32.6555 4.75 32 4.75Z" fill="black"/>
<path d="M32 4.75C31.3445 4.75 30.8125 4.218 30.8125 3.5625V1.1875C30.8125 0.532 31.3445 0 32 0C32.6555 0 33.1875 0.532 33.1875 1.1875V3.5625C33.1875 4.218 32.6555 4.75 32 4.75Z" fill="black"/>
<path d="M32 4.75C31.3445 4.75 30.8125 4.218 30.8125 3.5625V1.1875C30.8125 0.532 31.3445 0 32 0C32.6555 0 33.1875 0.532 33.1875 1.1875V3.5625C33.1875 4.218 32.6555 4.75 32 4.75Z" fill="black"/>
<path d="M18.6318 12.4687C18.4307 12.4687 18.2264 12.418 18.0396 12.3088L15.9813 11.1213C15.4128 10.7935 15.2181 10.0684 15.5458 9.49997C15.872 8.93313 16.5972 8.7368 17.1672 9.06613L19.2255 10.2536C19.7939 10.5814 19.9887 11.3065 19.6609 11.875C19.4408 12.2565 19.0418 12.4687 18.6318 12.4687V12.4687Z" fill="black"/>
<path d="M47.4252 29.0934C47.2241 29.0934 47.0198 29.0428 46.833 28.9335L44.7747 27.746C44.2078 27.4183 44.0131 26.6915 44.3408 26.1247C44.667 25.5579 45.3937 25.3599 45.9622 25.6909L48.0205 26.8784C48.5873 27.2061 48.7821 27.9329 48.4543 28.4997C48.2358 28.8813 47.8368 29.0934 47.4252 29.0934V29.0934Z" fill="black"/>
<path d="M18.6318 12.4687C18.4307 12.4687 18.2264 12.418 18.0396 12.3088L15.9813 11.1213C15.4128 10.7935 15.2181 10.0684 15.5458 9.49997C15.872 8.93313 16.5972 8.7368 17.1672 9.06613L19.2255 10.2536C19.7939 10.5814 19.9887 11.3065 19.6609 11.875C19.4408 12.2565 19.0418 12.4687 18.6318 12.4687V12.4687Z" fill="black"/>
<path d="M47.4252 29.0934C47.2241 29.0934 47.0198 29.0428 46.833 28.9335L44.7747 27.746C44.2078 27.4183 44.0131 26.6915 44.3408 26.1247C44.667 25.5579 45.3937 25.3599 45.9622 25.6909L48.0205 26.8784C48.5873 27.2061 48.7821 27.9329 48.4543 28.4997C48.2358 28.8813 47.8368 29.0934 47.4252 29.0934V29.0934Z" fill="black"/>
<path d="M18.6318 12.4687C18.4307 12.4687 18.2264 12.418 18.0396 12.3088L15.9813 11.1213C15.4128 10.7935 15.2181 10.0684 15.5458 9.49997C15.872 8.93313 16.5972 8.7368 17.1672 9.06613L19.2255 10.2536C19.7939 10.5814 19.9887 11.3065 19.6609 11.875C19.4408 12.2565 19.0418 12.4687 18.6318 12.4687V12.4687Z" fill="black"/>
<path d="M47.4252 29.0934C47.2241 29.0934 47.0198 29.0428 46.833 28.9335L44.7747 27.746C44.2078 27.4183 44.0131 26.6915 44.3408 26.1247C44.667 25.5579 45.3937 25.3599 45.9622 25.6909L48.0205 26.8784C48.5873 27.2061 48.7821 27.9329 48.4543 28.4997C48.2358 28.8813 47.8368 29.0934 47.4252 29.0934V29.0934Z" fill="black"/>
<path d="M18.6318 12.4687C18.4307 12.4687 18.2264 12.418 18.0396 12.3088L15.9813 11.1213C15.4128 10.7935 15.2181 10.0684 15.5458 9.49997C15.872 8.93313 16.5972 8.7368 17.1672 9.06613L19.2255 10.2536C19.7939 10.5814 19.9887 11.3065 19.6609 11.875C19.4408 12.2565 19.0418 12.4687 18.6318 12.4687V12.4687Z" fill="black"/>
<path d="M47.4252 29.0934C47.2241 29.0934 47.0198 29.0428 46.833 28.9335L44.7747 27.746C44.2078 27.4183 44.0131 26.6915 44.3408 26.1247C44.667 25.5579 45.3937 25.3599 45.9622 25.6909L48.0205 26.8784C48.5873 27.2061 48.7821 27.9329 48.4543 28.4997C48.2358 28.8813 47.8368 29.0934 47.4252 29.0934V29.0934Z" fill="black"/>
<path d="M16.5751 29.0934C16.1634 29.0934 15.7644 28.8813 15.5459 28.4997C15.2181 27.9313 15.4129 27.2061 15.9797 26.8784L18.0381 25.6909C18.6081 25.3599 19.3332 25.5579 19.6594 26.1247C19.9871 26.6931 19.7924 27.4183 19.2256 27.746L17.1672 28.9335C16.9804 29.0428 16.7761 29.0934 16.5751 29.0934V29.0934Z" fill="black"/>
<path d="M45.37 12.4687C44.9583 12.4687 44.5593 12.2565 44.3408 11.875C44.0131 11.3065 44.2078 10.5814 44.7747 10.2536L46.833 9.06613C47.403 8.7368 48.1297 8.93313 48.4559 9.49997C48.7836 10.0684 48.5889 10.7935 48.0221 11.1213L45.9637 12.3088C45.7753 12.418 45.5711 12.4687 45.37 12.4687Z" fill="black"/>
<path d="M16.5751 29.0934C16.1634 29.0934 15.7644 28.8813 15.5459 28.4997C15.2181 27.9313 15.4129 27.2061 15.9797 26.8784L18.0381 25.6909C18.6081 25.3599 19.3332 25.5579 19.6594 26.1247C19.9871 26.6931 19.7924 27.4183 19.2256 27.746L17.1672 28.9335C16.9804 29.0428 16.7761 29.0934 16.5751 29.0934V29.0934Z" fill="black"/>
<path d="M45.37 12.4687C44.9583 12.4687 44.5593 12.2565 44.3408 11.875C44.0131 11.3065 44.2078 10.5814 44.7747 10.2536L46.833 9.06613C47.403 8.7368 48.1297 8.93313 48.4559 9.49997C48.7836 10.0684 48.5889 10.7935 48.0221 11.1213L45.9637 12.3088C45.7753 12.418 45.5711 12.4687 45.37 12.4687Z" fill="black"/>
<path d="M16.5751 29.0934C16.1634 29.0934 15.7644 28.8813 15.5459 28.4997C15.2181 27.9313 15.4129 27.2061 15.9797 26.8784L18.0381 25.6909C18.6081 25.3599 19.3332 25.5579 19.6594 26.1247C19.9871 26.6931 19.7924 27.4183 19.2256 27.746L17.1672 28.9335C16.9804 29.0428 16.7761 29.0934 16.5751 29.0934V29.0934Z" fill="black"/>
<path d="M45.37 12.4687C44.9583 12.4687 44.5593 12.2565 44.3408 11.875C44.0131 11.3065 44.2078 10.5814 44.7747 10.2536L46.833 9.06613C47.403 8.7368 48.1297 8.93313 48.4559 9.49997C48.7836 10.0684 48.5889 10.7935 48.0221 11.1213L45.9637 12.3088C45.7753 12.418 45.5711 12.4687 45.37 12.4687Z" fill="black"/>
<path d="M16.5751 29.0934C16.1634 29.0934 15.7644 28.8813 15.5459 28.4997C15.2181 27.9313 15.4129 27.2061 15.9797 26.8784L18.0381 25.6909C18.6081 25.3599 19.3332 25.5579 19.6594 26.1247C19.9871 26.6931 19.7924 27.4183 19.2256 27.746L17.1672 28.9335C16.9804 29.0428 16.7761 29.0934 16.5751 29.0934V29.0934Z" fill="black"/>
<path d="M45.37 12.4687C44.9583 12.4687 44.5593 12.2565 44.3408 11.875C44.0131 11.3065 44.2078 10.5814 44.7747 10.2536L46.833 9.06613C47.403 8.7368 48.1297 8.93313 48.4559 9.49997C48.7836 10.0684 48.5889 10.7935 48.0221 11.1213L45.9637 12.3088C45.7753 12.418 45.5711 12.4687 45.37 12.4687Z" fill="black"/>
<path d="M32 38C31.3445 38 30.8125 37.468 30.8125 36.8125V34.4375C30.8125 33.782 31.3445 33.25 32 33.25C32.6555 33.25 33.1875 33.782 33.1875 34.4375V36.8125C33.1875 37.468 32.6555 38 32 38Z" fill="black"/>
<g clip-path="url(#clip0_2691_3241)">
<path d="M118.698 5.14551H117.566C115.351 5.14551 113.551 6.94734 113.551 9.16084V32.5245C113.551 34.7396 115.353 36.5398 117.566 36.5398H135.089C137.304 36.5398 139.104 34.738 139.104 32.5245V5.14551C139.104 5.14551 118.69 5.26901 118.698 5.14551Z" fill="#2196F3"/>
<path d="M138.708 0.663086H124.26C122.511 0.663086 121.094 2.08017 121.094 3.82975V26.2529C121.094 28.0025 122.511 29.4196 124.26 29.4196H143.656C145.406 29.4196 146.823 28.0025 146.823 26.2529V3.82975C146.823 2.08017 145.406 0.663086 143.656 0.663086H138.708Z" fill="#ECEFF1"/>
<path d="M143.062 30.0833H124.854C122.452 30.0833 120.5 28.1311 120.5 25.7292V4.35417C120.5 1.95225 122.452 0 124.854 0H143.062C145.464 0 147.417 1.95225 147.417 4.35417V25.7292C147.417 28.1311 145.464 30.0833 143.062 30.0833ZM124.854 2.375C123.763 2.375 122.875 3.26325 122.875 4.35417V25.7292C122.875 26.8201 123.763 27.7083 124.854 27.7083H143.062C144.153 27.7083 145.042 26.8201 145.042 25.7292V4.35417C145.042 3.26325 144.153 2.375 143.062 2.375H124.854Z" fill="black"/>
<path d="M135.936 37.9997H116.936C114.534 37.9997 112.582 36.0474 112.582 33.6455V8.31217C112.582 5.91026 114.534 3.95801 116.936 3.95801H117.728C118.383 3.95801 118.915 4.49001 118.915 5.14551C118.915 5.80101 118.383 6.33301 117.728 6.33301H116.936C115.845 6.33301 114.957 7.22126 114.957 8.31217V33.6455C114.957 34.7364 115.845 35.6247 116.936 35.6247H135.936C137.027 35.6247 137.915 34.7364 137.915 33.6455V32.8538C137.915 32.1983 138.447 31.6663 139.103 31.6663C139.758 31.6663 140.29 32.1983 140.29 32.8538V33.6455C140.29 36.0474 138.338 37.9997 135.936 37.9997Z" fill="black"/>
<path d="M139.895 13.458H128.02C127.364 13.458 126.832 12.926 126.832 12.2705C126.832 11.615 127.364 11.083 128.02 11.083H139.895C140.55 11.083 141.082 11.615 141.082 12.2705C141.082 12.926 140.55 13.458 139.895 13.458Z" fill="black"/>
<path d="M139.895 18.208H128.02C127.364 18.208 126.832 17.676 126.832 17.0205C126.832 16.365 127.364 15.833 128.02 15.833H139.895C140.55 15.833 141.082 16.365 141.082 17.0205C141.082 17.676 140.55 18.208 139.895 18.208Z" fill="black"/>
<path d="M139.895 22.958H128.02C127.364 22.958 126.832 22.426 126.832 21.7705C126.832 21.115 127.364 20.583 128.02 20.583H139.895C140.55 20.583 141.082 21.115 141.082 21.7705C141.082 22.426 140.55 22.958 139.895 22.958Z" fill="black"/>
</g>
<g clip-path="url(#clip1_2691_3241)">
<path d="M241.87 17.0367L233.293 10.5925C233.239 10.5498 233.146 10.4532 233.146 10.2917C233.146 10.1302 233.239 10.0336 233.273 10.0051L241.872 3.54508C242.364 3.17458 242.646 2.603 242.646 1.97758C242.646 0.88825 241.758 0 240.667 0H214.938C214.282 0 213.75 0.532 213.75 1.1875V19.3958C213.75 20.0513 214.282 20.5833 214.938 20.5833H240.667C241.758 20.5833 242.646 19.6951 242.646 18.6042C242.646 17.9788 242.362 17.4088 241.87 17.0367V17.0367Z" fill="#FFC107"/>
<path d="M214.938 38C214.282 38 213.75 37.468 213.75 36.8125V1.1875C213.75 0.532 214.282 0 214.938 0C215.593 0 216.125 0.532 216.125 1.1875V36.8125C216.125 37.468 215.593 38 214.938 38Z" fill="black"/>
<path d="M240.667 20.5833H214.938C214.282 20.5833 213.75 20.0513 213.75 19.3958C213.75 18.7403 214.282 18.2083 214.938 18.2083H239.474L231.848 12.4767C231.156 11.9352 230.771 11.1435 230.771 10.2917C230.771 9.43983 231.156 8.64975 231.827 8.1225L239.476 2.375H214.938C214.282 2.375 213.75 1.843 213.75 1.1875C213.75 0.532 214.282 0 214.938 0H240.667C241.758 0 242.646 0.88825 242.646 1.97917C242.646 2.60617 242.362 3.17775 241.868 3.54825L233.273 10.0067C233.239 10.0352 233.146 10.1318 233.146 10.2917C233.146 10.4532 233.239 10.5498 233.293 10.5925L241.87 17.0367C242.364 17.404 242.646 17.9756 242.646 18.6026C242.646 19.6951 241.758 20.5833 240.667 20.5833V20.5833ZM240.667 2.375H240.683H240.667ZM240.443 1.64825C240.442 1.64825 240.442 1.64825 240.443 1.64825V1.64825Z" fill="black"/>
</g>
<path d="M45.0625 81.875C44.407 81.875 43.875 82.407 43.875 83.0625H20.125C20.125 82.407 19.593 81.875 18.9375 81.875C18.282 81.875 17.75 82.407 17.75 83.0625V103.646C17.75 106.048 19.7023 108 22.1042 108H41.8958C44.2978 108 46.25 106.048 46.25 103.646V83.0625C46.25 82.407 45.718 81.875 45.0625 81.875Z" fill="#ECEFF1"/>
<path d="M45.0612 74.75H18.9362C16.5343 74.75 14.582 76.7023 14.582 79.1042V83.0625C14.582 83.718 15.114 84.25 15.7695 84.25H48.2279C48.8834 84.25 49.4154 83.718 49.4154 83.0625V79.1042C49.4154 76.7023 47.4631 74.75 45.0612 74.75Z" fill="#607D8B"/>
<path d="M41.8958 108H22.1042C19.7023 108 17.75 106.048 17.75 103.646V83.0625C17.75 82.407 18.282 81.875 18.9375 81.875C19.593 81.875 20.125 82.407 20.125 83.0625V103.646C20.125 104.737 21.0133 105.625 22.1042 105.625H41.8958C42.9868 105.625 43.875 104.737 43.875 103.646V83.0625C43.875 82.407 44.407 81.875 45.0625 81.875C45.718 81.875 46.25 82.407 46.25 83.0625V103.646C46.25 106.048 44.2978 108 41.8958 108Z" fill="black"/>
<path d="M48.2279 84.25H15.7695C15.114 84.25 14.582 83.718 14.582 83.0625V79.1042C14.582 76.7023 16.5343 74.75 18.9362 74.75H45.0612C47.4631 74.75 49.4154 76.7023 49.4154 79.1042V83.0625C49.4154 83.718 48.8834 84.25 48.2279 84.25ZM16.957 81.875H47.0404V79.1042C47.0404 78.0133 46.1521 77.125 45.0612 77.125H18.9362C17.8453 77.125 16.957 78.0133 16.957 79.1042V81.875Z" fill="black"/>
<path d="M38.7279 77.125C38.0724 77.125 37.5404 76.593 37.5404 75.9375V72.7708C37.5404 72.5523 37.363 72.375 37.1445 72.375H26.8529C26.6344 72.375 26.457 72.5523 26.457 72.7708V75.9375C26.457 76.593 25.925 77.125 25.2695 77.125C24.614 77.125 24.082 76.593 24.082 75.9375V72.7708C24.082 71.2429 25.3249 70 26.8529 70H37.1445C38.6724 70 39.9154 71.2429 39.9154 72.7708V75.9375C39.9154 76.593 39.3834 77.125 38.7279 77.125Z" fill="black"/>
<path d="M32 101.667C31.3445 101.667 30.8125 101.135 30.8125 100.479V90.1875C30.8125 89.532 31.3445 89 32 89C32.6555 89 33.1875 89.532 33.1875 90.1875V100.479C33.1875 101.135 32.6555 101.667 32 101.667Z" fill="black"/>
<path d="M25.2695 101.667C24.614 101.667 24.082 101.135 24.082 100.479V90.1875C24.082 89.532 24.614 89 25.2695 89C25.925 89 26.457 89.532 26.457 90.1875V100.479C26.457 101.135 25.925 101.667 25.2695 101.667Z" fill="black"/>
<path d="M38.7305 101.667C38.075 101.667 37.543 101.135 37.543 100.479V90.1875C37.543 89.532 38.075 89 38.7305 89C39.386 89 39.918 89.532 39.918 90.1875V100.479C39.918 101.135 39.386 101.667 38.7305 101.667Z" fill="black"/>
<g clip-path="url(#clip2_2691_3241)">
<path d="M137.136 70H121.686C119.281 70 117.332 71.9491 117.332 74.3542V80.6875C117.332 81.343 117.864 81.875 118.52 81.875H141.478C142.133 81.875 142.665 81.343 142.665 80.6875V78.1146V75.529C142.665 72.4763 140.189 70 137.136 70Z" fill="#ECEFF1"/>
<path d="M144.646 79.5H115.354C112.952 79.5 111 81.4523 111 83.8542V94.1458C111 96.5478 112.952 98.5 115.354 98.5H144.646C147.048 98.5 149 96.5478 149 94.1458V83.8542C149 81.4523 147.048 79.5 144.646 79.5Z" fill="#607D8B"/>
<path d="M141.478 90.583H118.52C117.864 90.583 117.332 91.115 117.332 91.7705V103.646C117.332 106.047 119.284 108 121.686 108H138.311C140.713 108 142.665 106.047 142.665 103.646V91.7705C142.665 91.115 142.133 90.583 141.478 90.583Z" fill="#ECEFF1"/>
<path d="M144.646 98.5H141.479C140.824 98.5 140.292 97.968 140.292 97.3125C140.292 96.657 140.824 96.125 141.479 96.125H144.646C145.737 96.125 146.625 95.2368 146.625 94.1458V83.8542C146.625 82.7633 145.737 81.875 144.646 81.875H115.354C114.263 81.875 113.375 82.7633 113.375 83.8542V94.1458C113.375 95.2368 114.263 96.125 115.354 96.125H118.521C119.176 96.125 119.708 96.657 119.708 97.3125C119.708 97.968 119.176 98.5 118.521 98.5H115.354C112.952 98.5 111 96.5478 111 94.1458V83.8542C111 81.4523 112.952 79.5 115.354 79.5H144.646C147.048 79.5 149 81.4523 149 83.8542V94.1458C149 96.5478 147.048 98.5 144.646 98.5Z" fill="black"/>
<path d="M138.311 108H121.686C119.284 108 117.332 106.047 117.332 103.646V91.7705C117.332 91.115 117.864 90.583 118.52 90.583H141.478C142.133 90.583 142.665 91.115 142.665 91.7705V103.646C142.665 106.047 140.713 108 138.311 108ZM119.707 92.958V103.646C119.707 104.736 120.595 105.625 121.686 105.625H138.311C139.402 105.625 140.29 104.736 140.29 103.646V92.958H119.707Z" fill="black"/>
<path d="M136.728 98.5H123.27C122.614 98.5 122.082 97.968 122.082 97.3125C122.082 96.657 122.614 96.125 123.27 96.125H136.728C137.383 96.125 137.915 96.657 137.915 97.3125C137.915 97.968 137.383 98.5 136.728 98.5Z" fill="black"/>
<path d="M136.728 103.25H123.27C122.614 103.25 122.082 102.718 122.082 102.063C122.082 101.407 122.614 100.875 123.27 100.875H136.728C137.383 100.875 137.915 101.407 137.915 102.063C137.915 102.718 137.383 103.25 136.728 103.25Z" fill="black"/>
<path d="M141.478 81.875C140.822 81.875 140.29 81.343 140.29 80.6875V74.3542C140.29 73.2633 139.402 72.375 138.311 72.375H121.686C120.595 72.375 119.707 73.2633 119.707 74.3542V80.6875C119.707 81.343 119.175 81.875 118.52 81.875C117.864 81.875 117.332 81.343 117.332 80.6875V74.3542C117.332 71.9523 119.284 70 121.686 70H138.311C140.713 70 142.665 71.9523 142.665 74.3542V80.6875C142.665 81.343 142.133 81.875 141.478 81.875Z" fill="black"/>
</g>
<path d="M228.001 100.084C234.122 100.084 239.085 95.1215 239.085 89.0003C239.085 82.8792 234.122 77.917 228.001 77.917C221.88 77.917 216.918 82.8792 216.918 89.0003C216.918 95.1215 221.88 100.084 228.001 100.084Z" fill="#FFC107"/>
<path d="M227.999 101.666C221.015 101.666 215.332 95.9838 215.332 88.9997C215.332 82.0156 221.015 76.333 227.999 76.333C234.983 76.333 240.665 82.0156 240.665 88.9997C240.665 95.9838 234.983 101.666 227.999 101.666ZM227.999 78.708C222.324 78.708 217.707 83.325 217.707 88.9997C217.707 94.6743 222.324 99.2913 227.999 99.2913C233.673 99.2913 238.29 94.6743 238.29 88.9997C238.29 83.325 233.673 78.708 227.999 78.708Z" fill="black"/>
<path d="M228 74.75C227.345 74.75 226.812 74.218 226.812 73.5625V71.1875C226.812 70.532 227.345 70 228 70C228.656 70 229.188 70.532 229.188 71.1875V73.5625C229.188 74.218 228.656 74.75 228 74.75Z" fill="black"/>
<path d="M228 74.75C227.345 74.75 226.812 74.218 226.812 73.5625V71.1875C226.812 70.532 227.345 70 228 70C228.656 70 229.188 70.532 229.188 71.1875V73.5625C229.188 74.218 228.656 74.75 228 74.75Z" fill="black"/>
<path d="M228 74.75C227.345 74.75 226.812 74.218 226.812 73.5625V71.1875C226.812 70.532 227.345 70 228 70C228.656 70 229.188 70.532 229.188 71.1875V73.5625C229.188 74.218 228.656 74.75 228 74.75Z" fill="black"/>
<path d="M228 74.75C227.345 74.75 226.812 74.218 226.812 73.5625V71.1875C226.812 70.532 227.345 70 228 70C228.656 70 229.188 70.532 229.188 71.1875V73.5625C229.188 74.218 228.656 74.75 228 74.75Z" fill="black"/>
<path d="M214.632 82.4687C214.431 82.4687 214.226 82.418 214.04 82.3088L211.981 81.1213C211.413 80.7935 211.218 80.0684 211.546 79.5C211.872 78.9331 212.597 78.7368 213.167 79.0661L215.226 80.2536C215.794 80.5814 215.989 81.3065 215.661 81.875C215.441 82.2565 215.042 82.4687 214.632 82.4687V82.4687Z" fill="black"/>
<path d="M243.425 99.0934C243.224 99.0934 243.02 99.0428 242.833 98.9335L240.775 97.746C240.208 97.4183 240.013 96.6915 240.341 96.1247C240.667 95.5579 241.394 95.3599 241.962 95.6909L244.02 96.8784C244.587 97.2061 244.782 97.9329 244.454 98.4997C244.236 98.8813 243.837 99.0934 243.425 99.0934V99.0934Z" fill="black"/>
<path d="M214.632 82.4687C214.431 82.4687 214.226 82.418 214.04 82.3088L211.981 81.1213C211.413 80.7935 211.218 80.0684 211.546 79.5C211.872 78.9331 212.597 78.7368 213.167 79.0661L215.226 80.2536C215.794 80.5814 215.989 81.3065 215.661 81.875C215.441 82.2565 215.042 82.4687 214.632 82.4687V82.4687Z" fill="black"/>
<path d="M243.425 99.0934C243.224 99.0934 243.02 99.0428 242.833 98.9335L240.775 97.746C240.208 97.4183 240.013 96.6915 240.341 96.1247C240.667 95.5579 241.394 95.3599 241.962 95.6909L244.02 96.8784C244.587 97.2061 244.782 97.9329 244.454 98.4997C244.236 98.8813 243.837 99.0934 243.425 99.0934V99.0934Z" fill="black"/>
<path d="M214.632 82.4687C214.431 82.4687 214.226 82.418 214.04 82.3088L211.981 81.1213C211.413 80.7935 211.218 80.0684 211.546 79.5C211.872 78.9331 212.597 78.7368 213.167 79.0661L215.226 80.2536C215.794 80.5814 215.989 81.3065 215.661 81.875C215.441 82.2565 215.042 82.4687 214.632 82.4687V82.4687Z" fill="black"/>
<path d="M243.425 99.0934C243.224 99.0934 243.02 99.0428 242.833 98.9335L240.775 97.746C240.208 97.4183 240.013 96.6915 240.341 96.1247C240.667 95.5579 241.394 95.3599 241.962 95.6909L244.02 96.8784C244.587 97.2061 244.782 97.9329 244.454 98.4997C244.236 98.8813 243.837 99.0934 243.425 99.0934V99.0934Z" fill="black"/>
<path d="M214.632 82.4687C214.431 82.4687 214.226 82.418 214.04 82.3088L211.981 81.1213C211.413 80.7935 211.218 80.0684 211.546 79.5C211.872 78.9331 212.597 78.7368 213.167 79.0661L215.226 80.2536C215.794 80.5814 215.989 81.3065 215.661 81.875C215.441 82.2565 215.042 82.4687 214.632 82.4687V82.4687Z" fill="black"/>
<path d="M243.425 99.0934C243.224 99.0934 243.02 99.0428 242.833 98.9335L240.775 97.746C240.208 97.4183 240.013 96.6915 240.341 96.1247C240.667 95.5579 241.394 95.3599 241.962 95.6909L244.02 96.8784C244.587 97.2061 244.782 97.9329 244.454 98.4997C244.236 98.8813 243.837 99.0934 243.425 99.0934V99.0934Z" fill="black"/>
<path d="M212.575 99.0934C212.163 99.0934 211.764 98.8813 211.546 98.4997C211.218 97.9313 211.413 97.2061 211.98 96.8784L214.038 95.6909C214.608 95.3599 215.333 95.5579 215.659 96.1247C215.987 96.6931 215.792 97.4183 215.226 97.746L213.167 98.9335C212.98 99.0428 212.776 99.0934 212.575 99.0934V99.0934Z" fill="black"/>
<path d="M241.37 82.4687C240.958 82.4687 240.559 82.2565 240.341 81.875C240.013 81.3065 240.208 80.5814 240.775 80.2536L242.833 79.0661C243.403 78.7368 244.13 78.9331 244.456 79.5C244.784 80.0684 244.589 80.7935 244.022 81.1213L241.964 82.3088C241.775 82.418 241.571 82.4687 241.37 82.4687Z" fill="black"/>
<path d="M212.575 99.0934C212.163 99.0934 211.764 98.8813 211.546 98.4997C211.218 97.9313 211.413 97.2061 211.98 96.8784L214.038 95.6909C214.608 95.3599 215.333 95.5579 215.659 96.1247C215.987 96.6931 215.792 97.4183 215.226 97.746L213.167 98.9335C212.98 99.0428 212.776 99.0934 212.575 99.0934V99.0934Z" fill="black"/>
<path d="M241.37 82.4687C240.958 82.4687 240.559 82.2565 240.341 81.875C240.013 81.3065 240.208 80.5814 240.775 80.2536L242.833 79.0661C243.403 78.7368 244.13 78.9331 244.456 79.5C244.784 80.0684 244.589 80.7935 244.022 81.1213L241.964 82.3088C241.775 82.418 241.571 82.4687 241.37 82.4687Z" fill="black"/>
<path d="M212.575 99.0934C212.163 99.0934 211.764 98.8813 211.546 98.4997C211.218 97.9313 211.413 97.2061 211.98 96.8784L214.038 95.6909C214.608 95.3599 215.333 95.5579 215.659 96.1247C215.987 96.6931 215.792 97.4183 215.226 97.746L213.167 98.9335C212.98 99.0428 212.776 99.0934 212.575 99.0934V99.0934Z" fill="black"/>
<path d="M241.37 82.4687C240.958 82.4687 240.559 82.2565 240.341 81.875C240.013 81.3065 240.208 80.5814 240.775 80.2536L242.833 79.0661C243.403 78.7368 244.13 78.9331 244.456 79.5C244.784 80.0684 244.589 80.7935 244.022 81.1213L241.964 82.3088C241.775 82.418 241.571 82.4687 241.37 82.4687Z" fill="black"/>
<path d="M212.575 99.0934C212.163 99.0934 211.764 98.8813 211.546 98.4997C211.218 97.9313 211.413 97.2061 211.98 96.8784L214.038 95.6909C214.608 95.3599 215.333 95.5579 215.659 96.1247C215.987 96.6931 215.792 97.4183 215.226 97.746L213.167 98.9335C212.98 99.0428 212.776 99.0934 212.575 99.0934V99.0934Z" fill="black"/>
<path d="M241.37 82.4687C240.958 82.4687 240.559 82.2565 240.341 81.875C240.013 81.3065 240.208 80.5814 240.775 80.2536L242.833 79.0661C243.403 78.7368 244.13 78.9331 244.456 79.5C244.784 80.0684 244.589 80.7935 244.022 81.1213L241.964 82.3088C241.775 82.418 241.571 82.4687 241.37 82.4687Z" fill="black"/>
<path d="M228 108C227.345 108 226.812 107.468 226.812 106.813V104.438C226.812 103.782 227.345 103.25 228 103.25C228.656 103.25 229.188 103.782 229.188 104.438V106.813C229.188 107.468 228.656 108 228 108Z" fill="black"/>
<g clip-path="url(#clip3_2691_3241)">
<path d="M20.6982 145.146H19.5661C17.351 145.146 15.5508 146.947 15.5508 149.161V172.525C15.5508 174.74 17.3526 176.54 19.5661 176.54H37.0889C39.3039 176.54 41.1042 174.738 41.1042 172.525V145.146C41.1042 145.146 20.6903 145.269 20.6982 145.146Z" fill="#2196F3"/>
<path d="M40.7083 140.663H26.2604C24.5108 140.663 23.0938 142.08 23.0938 143.83V166.253C23.0938 168.003 24.5108 169.42 26.2604 169.42H45.6562C47.4058 169.42 48.8229 168.003 48.8229 166.253V143.83C48.8229 142.08 47.4058 140.663 45.6562 140.663H40.7083Z" fill="#ECEFF1"/>
<path d="M45.0625 170.083H26.8542C24.4522 170.083 22.5 168.131 22.5 165.729V144.354C22.5 141.952 24.4522 140 26.8542 140H45.0625C47.4644 140 49.4167 141.952 49.4167 144.354V165.729C49.4167 168.131 47.4644 170.083 45.0625 170.083ZM26.8542 142.375C25.7632 142.375 24.875 143.263 24.875 144.354V165.729C24.875 166.82 25.7632 167.708 26.8542 167.708H45.0625C46.1534 167.708 47.0417 166.82 47.0417 165.729V144.354C47.0417 143.263 46.1534 142.375 45.0625 142.375H26.8542Z" fill="black"/>
<path d="M37.9362 178H18.9362C16.5343 178 14.582 176.047 14.582 173.646V148.312C14.582 145.91 16.5343 143.958 18.9362 143.958H19.7279C20.3834 143.958 20.9154 144.49 20.9154 145.146C20.9154 145.801 20.3834 146.333 19.7279 146.333H18.9362C17.8453 146.333 16.957 147.221 16.957 148.312V173.646C16.957 174.736 17.8453 175.625 18.9362 175.625H37.9362C39.0271 175.625 39.9154 174.736 39.9154 173.646V172.854C39.9154 172.198 40.4474 171.666 41.1029 171.666C41.7584 171.666 42.2904 172.198 42.2904 172.854V173.646C42.2904 176.047 40.3381 178 37.9362 178Z" fill="black"/>
<path d="M41.8945 153.458H30.0195C29.364 153.458 28.832 152.926 28.832 152.271C28.832 151.615 29.364 151.083 30.0195 151.083H41.8945C42.55 151.083 43.082 151.615 43.082 152.271C43.082 152.926 42.55 153.458 41.8945 153.458Z" fill="black"/>
<path d="M41.8945 158.208H30.0195C29.364 158.208 28.832 157.676 28.832 157.021C28.832 156.365 29.364 155.833 30.0195 155.833H41.8945C42.55 155.833 43.082 156.365 43.082 157.021C43.082 157.676 42.55 158.208 41.8945 158.208Z" fill="black"/>
<path d="M41.8945 162.958H30.0195C29.364 162.958 28.832 162.426 28.832 161.771C28.832 161.115 29.364 160.583 30.0195 160.583H41.8945C42.55 160.583 43.082 161.115 43.082 161.771C43.082 162.426 42.55 162.958 41.8945 162.958Z" fill="black"/>
</g>
<g clip-path="url(#clip4_2691_3241)">
<path d="M143.87 157.037L135.293 150.593C135.239 150.55 135.146 150.453 135.146 150.292C135.146 150.13 135.239 150.034 135.273 150.005L143.872 143.545C144.364 143.175 144.646 142.603 144.646 141.978C144.646 140.888 143.758 140 142.667 140H116.938C116.282 140 115.75 140.532 115.75 141.188V159.396C115.75 160.051 116.282 160.583 116.938 160.583H142.667C143.758 160.583 144.646 159.695 144.646 158.604C144.646 157.979 144.362 157.409 143.87 157.037V157.037Z" fill="#FFC107"/>
<path d="M116.938 178C116.282 178 115.75 177.468 115.75 176.813V141.188C115.75 140.532 116.282 140 116.938 140C117.593 140 118.125 140.532 118.125 141.188V176.813C118.125 177.468 117.593 178 116.938 178Z" fill="black"/>
<path d="M142.667 160.583H116.938C116.282 160.583 115.75 160.051 115.75 159.396C115.75 158.74 116.282 158.208 116.938 158.208H141.474L133.848 152.477C133.156 151.935 132.771 151.144 132.771 150.292C132.771 149.44 133.156 148.65 133.827 148.123L141.476 142.375H116.938C116.282 142.375 115.75 141.843 115.75 141.188C115.75 140.532 116.282 140 116.938 140H142.667C143.758 140 144.646 140.888 144.646 141.979C144.646 142.606 144.362 143.178 143.868 143.548L135.273 150.007C135.239 150.035 135.146 150.132 135.146 150.292C135.146 150.453 135.239 150.55 135.293 150.593L143.87 157.037C144.364 157.404 144.646 157.976 144.646 158.603C144.646 159.695 143.758 160.583 142.667 160.583V160.583ZM142.667 142.375H142.683H142.667ZM142.443 141.648C142.442 141.648 142.442 141.648 142.443 141.648V141.648Z" fill="black"/>
</g>
<g clip-path="url(#clip5_2691_3241)">
<path d="M228 140C217.523 140 209 148.523 209 159C209 169.477 217.523 178 228 178C238.477 178 247 169.477 247 159C247 148.523 238.477 140 228 140Z" fill="#607D8B"/>
<path d="M228 149.896C227.345 149.896 226.812 149.364 226.812 148.709V145.542C226.812 144.886 227.345 144.354 228 144.354C228.656 144.354 229.188 144.886 229.188 145.542V148.709C229.188 149.364 228.656 149.896 228 149.896Z" fill="black"/>
<path d="M228 173.646C227.345 173.646 226.812 173.114 226.812 172.459V169.292C226.812 168.636 227.345 168.104 228 168.104C228.656 168.104 229.188 168.636 229.188 169.292V172.459C229.188 173.114 228.656 173.646 228 173.646Z" fill="black"/>
<path d="M219.085 155.042C218.884 155.042 218.68 154.991 218.493 154.882L215.751 153.299C215.182 152.971 214.988 152.246 215.315 151.677C215.643 151.111 216.367 150.913 216.937 151.244L219.679 152.827C220.246 153.155 220.441 153.881 220.113 154.448C219.896 154.83 219.497 155.042 219.085 155.042Z" fill="black"/>
<path d="M239.654 166.917C239.453 166.917 239.249 166.866 239.062 166.757L236.32 165.173C235.753 164.846 235.558 164.119 235.886 163.552C236.212 162.984 236.939 162.789 237.507 163.118L240.249 164.702C240.816 165.029 241.011 165.756 240.683 166.323C240.465 166.704 240.066 166.917 239.654 166.917V166.917Z" fill="black"/>
<path d="M216.347 166.916C215.935 166.916 215.536 166.704 215.317 166.323C214.99 165.754 215.184 165.029 215.751 164.701L218.494 163.118C219.062 162.789 219.789 162.985 220.115 163.552C220.443 164.12 220.248 164.845 219.681 165.173L216.939 166.756C216.752 166.866 216.548 166.916 216.347 166.916Z" fill="black"/>
<path d="M236.915 155.042C236.503 155.042 236.104 154.83 235.886 154.448C235.558 153.88 235.753 153.155 236.32 152.827L239.062 151.244C239.63 150.913 240.355 151.111 240.683 151.677C241.011 152.246 240.816 152.971 240.249 153.299L237.507 154.882C237.32 154.991 237.116 155.042 236.915 155.042V155.042Z" fill="black"/>
<path d="M228 178C217.523 178 209 169.477 209 159C209 148.523 217.523 140 228 140C238.477 140 247 148.523 247 159C247 169.477 238.477 178 228 178ZM228 142.375C218.833 142.375 211.375 149.833 211.375 159C211.375 168.168 218.833 175.625 228 175.625C237.168 175.625 244.625 168.168 244.625 159C244.625 149.833 237.168 142.375 228 142.375Z" fill="black"/>
</g>
<defs>
<clipPath id="clip0_2691_3241">
<rect width="38" height="38" fill="white" transform="translate(111)"/>
</clipPath>
<clipPath id="clip1_2691_3241">
<rect width="38" height="38" fill="white" transform="translate(209)"/>
</clipPath>
<clipPath id="clip2_2691_3241">
<rect width="38" height="38" fill="white" transform="translate(111 70)"/>
</clipPath>
<clipPath id="clip3_2691_3241">
<rect width="38" height="38" fill="white" transform="translate(13 140)"/>
</clipPath>
<clipPath id="clip4_2691_3241">
<rect width="38" height="38" fill="white" transform="translate(111 140)"/>
</clipPath>
<clipPath id="clip5_2691_3241">
<rect width="38" height="38" fill="white" transform="translate(209 140)"/>
</clipPath>
</defs>
</svg>
