<svg width="32" height="32" viewBox="0 0 32 32" fill="none" xmlns="http://www.w3.org/2000/svg">
<path d="M3.66797 32C3.11597 32 2.66797 31.552 2.66797 31V1C2.66797 0.448 3.11597 0 3.66797 0C4.21997 0 4.66797 0.448 4.66797 1V31C4.66797 31.552 4.21997 32 3.66797 32Z" fill="black"/>
<path d="M17.668 17.3333H3.66797C3.11597 17.3333 2.66797 16.8853 2.66797 16.3333C2.66797 15.7813 3.11597 15.3333 3.66797 15.3333H17.668C17.852 15.3333 18.0013 15.184 18.0013 15V2.33333C18.0013 2.14933 17.852 2 17.668 2H3.66797C3.11597 2 2.66797 1.552 2.66797 1C2.66797 0.448 3.11597 0 3.66797 0H17.668C18.9546 0 20.0013 1.04667 20.0013 2.33333V15C20.0013 16.2867 18.9546 17.3333 17.668 17.3333Z" fill="black"/>
<path d="M26.9987 22.6663H13.6654C12.3787 22.6663 11.332 21.6197 11.332 20.333V16.333C11.332 15.781 11.78 15.333 12.332 15.333C12.884 15.333 13.332 15.781 13.332 16.333V20.333C13.332 20.5143 13.484 20.6663 13.6654 20.6663H26.9987C27.18 20.6663 27.332 20.5143 27.332 20.333V7.66634C27.332 7.48501 27.18 7.33301 26.9987 7.33301H18.9987C18.4467 7.33301 17.9987 6.88501 17.9987 6.33301C17.9987 5.78101 18.4467 5.33301 18.9987 5.33301H26.9987C28.2854 5.33301 29.332 6.37967 29.332 7.66634V20.333C29.332 21.6197 28.2854 22.6663 26.9987 22.6663Z" fill="black"/>
</svg>
