<svg width="260" height="178" viewBox="0 0 260 178" fill="none" xmlns="http://www.w3.org/2000/svg">
<g clip-path="url(#clip0_2673_855)">
<path d="M33.6752 31.2929C32.9358 31.2929 32.2391 31.0048 31.7166 30.4807L20.5193 19.2849C19.9952 18.7608 19.707 18.0658 19.707 17.3263C19.707 16.5869 19.9952 15.8903 20.5193 15.3678L21.2714 14.6141C22.0947 13.7908 23.1872 13.3379 24.3509 13.3379H26.205C26.7339 13.3379 27.231 13.1321 27.6031 12.7584L32.1425 8.219C32.5954 7.76617 32.7505 7.10909 32.5479 6.50267C32.0602 5.0365 32.4354 3.44684 33.5279 2.35592L35.0749 0.809004C36.1563 -0.270829 37.9122 -0.272413 38.9936 0.809004L50.1894 12.0048C51.2708 13.0846 51.2708 14.8437 50.1894 15.9235L48.6424 17.4704C47.5499 18.5629 45.9587 18.9366 44.4957 18.4505C43.8893 18.2494 43.2322 18.403 42.7794 18.8558L38.2399 23.3937C37.8663 23.7673 37.6604 24.2645 37.6604 24.7933V26.6474C37.6604 27.8112 37.2076 28.9037 36.3843 29.727L35.6322 30.4791C35.1097 31.0048 34.4146 31.2929 33.6752 31.2929ZM24.3494 15.7145C23.8205 15.7145 23.3234 15.9203 22.9497 16.294L22.1992 17.0461C22.0456 17.2013 22.0456 17.4514 22.1992 17.6066L33.3949 28.8023C33.5501 28.9575 33.8003 28.9575 33.9554 28.8023L34.7075 28.0503C35.0812 27.6766 35.287 27.1794 35.287 26.6506V24.7949C35.287 23.6312 35.7399 22.5371 36.5632 21.7153L41.101 17.1775C42.1919 16.0834 43.78 15.7082 45.2478 16.1974C45.8542 16.3985 46.5129 16.2433 46.9641 15.7921L48.511 14.2452C48.6662 14.09 48.6662 13.8398 48.511 13.6847L37.3153 2.48892C37.1601 2.33375 36.9099 2.33534 36.7548 2.48892L35.2063 4.03742C34.7534 4.49025 34.5983 5.14734 34.8009 5.75375C35.2902 7.21992 34.9149 8.808 33.8209 9.9005L29.283 14.4383C28.4629 15.2617 27.3688 15.7145 26.205 15.7145H24.3494Z" fill="black"/>
<path d="M14.1873 37.9999C13.8833 37.9999 13.5793 37.8843 13.3466 37.6515C12.8842 37.1876 12.8842 36.4355 13.3481 35.9716L26.1256 23.2099C26.588 22.7476 27.3416 22.746 27.8056 23.2115C28.2679 23.6754 28.2679 24.4275 27.804 24.8914L15.0265 37.6531C14.7953 37.8843 14.4913 37.9999 14.1873 37.9999Z" fill="black"/>
</g>
<path d="M147.812 34.8335H126.438C125.782 34.8335 125.25 34.3015 125.25 33.646C125.25 32.9905 125.782 32.4585 126.438 32.4585H147.812C148.468 32.4585 149 32.9905 149 33.646C149 34.3015 148.468 34.8335 147.812 34.8335Z" fill="black"/>
<path d="M114.562 34.8331C114.25 34.8331 113.948 34.7112 113.723 34.4848C113.432 34.1935 113.313 33.7739 113.406 33.3733L115.132 26.0504C115.183 25.8351 115.292 25.6387 115.449 25.4836L137.281 3.65098C138.624 2.30673 140.974 2.30356 142.32 3.65098L144.558 5.88981C145.231 6.56273 145.602 7.45731 145.602 8.40889C145.602 9.36048 145.231 10.2566 144.558 10.928L122.726 32.759C122.569 32.9157 122.373 33.025 122.159 33.0756L114.836 34.8015C114.744 34.8236 114.652 34.8331 114.562 34.8331ZM117.366 26.9228L116.158 32.0496L121.285 30.8416L142.878 9.24806C143.103 9.02323 143.227 8.72556 143.227 8.40889C143.227 8.09223 143.103 7.79298 142.878 7.56973L140.64 5.32931C140.192 4.88123 139.408 4.88123 138.961 5.32931L117.366 26.9228ZM121.885 31.9198H121.901H121.885Z" fill="black"/>
<path d="M138.928 16.0642C138.624 16.0642 138.32 15.9486 138.089 15.7159L132.491 10.1172C132.027 9.65329 132.027 8.90121 132.491 8.43729C132.954 7.97338 133.707 7.97338 134.17 8.43729L139.769 14.036C140.233 14.4999 140.233 15.252 139.769 15.7159C139.536 15.9486 139.232 16.0642 138.928 16.0642Z" fill="black"/>
<path d="M237.896 38H218.104C215.702 38 213.75 36.0478 213.75 33.6458V13.0625C213.75 12.407 214.282 11.875 214.938 11.875C215.593 11.875 216.125 12.407 216.125 13.0625V33.6458C216.125 34.7367 217.013 35.625 218.104 35.625H237.896C238.987 35.625 239.875 34.7367 239.875 33.6458V13.0625C239.875 12.407 240.407 11.875 241.062 11.875C241.718 11.875 242.25 12.407 242.25 13.0625V33.6458C242.25 36.0478 240.298 38 237.896 38Z" fill="black"/>
<path d="M244.228 14.25H211.77C211.114 14.25 210.582 13.718 210.582 13.0625V9.10417C210.582 6.70225 212.534 4.75 214.936 4.75H241.061C243.463 4.75 245.415 6.70225 245.415 9.10417V13.0625C245.415 13.718 244.883 14.25 244.228 14.25ZM212.957 11.875H243.04V9.10417C243.04 8.01325 242.152 7.125 241.061 7.125H214.936C213.845 7.125 212.957 8.01325 212.957 9.10417V11.875Z" fill="black"/>
<path d="M234.728 7.125C234.072 7.125 233.54 6.593 233.54 5.9375V2.77083C233.54 2.55233 233.363 2.375 233.145 2.375H222.853C222.634 2.375 222.457 2.55233 222.457 2.77083V5.9375C222.457 6.593 221.925 7.125 221.27 7.125C220.614 7.125 220.082 6.593 220.082 5.9375V2.77083C220.082 1.24292 221.325 0 222.853 0H233.145C234.672 0 235.915 1.24292 235.915 2.77083V5.9375C235.915 6.593 235.383 7.125 234.728 7.125Z" fill="black"/>
<path d="M228 31.6667C227.345 31.6667 226.812 31.1347 226.812 30.4792V20.1875C226.812 19.532 227.345 19 228 19C228.656 19 229.188 19.532 229.188 20.1875V30.4792C229.188 31.1347 228.656 31.6667 228 31.6667Z" fill="black"/>
<path d="M221.27 31.6667C220.614 31.6667 220.082 31.1347 220.082 30.4792V20.1875C220.082 19.532 220.614 19 221.27 19C221.925 19 222.457 19.532 222.457 20.1875V30.4792C222.457 31.1347 221.925 31.6667 221.27 31.6667Z" fill="black"/>
<path d="M234.73 31.6667C234.075 31.6667 233.543 31.1347 233.543 30.4792V20.1875C233.543 19.532 234.075 19 234.73 19C235.386 19 235.918 19.532 235.918 20.1875V30.4792C235.918 31.1347 235.386 31.6667 234.73 31.6667Z" fill="black"/>
<path d="M17.3555 108C16.7 108 16.168 107.468 16.168 106.812V71.1875C16.168 70.532 16.7 70 17.3555 70C18.011 70 18.543 70.532 18.543 71.1875V106.812C18.543 107.468 18.011 108 17.3555 108Z" fill="black"/>
<path d="M33.9805 90.5833H17.3555C16.7 90.5833 16.168 90.0513 16.168 89.3958C16.168 88.7403 16.7 88.2083 17.3555 88.2083H33.9805C34.199 88.2083 34.3763 88.031 34.3763 87.8125V72.7708C34.3763 72.5523 34.199 72.375 33.9805 72.375H17.3555C16.7 72.375 16.168 71.843 16.168 71.1875C16.168 70.532 16.7 70 17.3555 70H33.9805C35.5084 70 36.7513 71.2429 36.7513 72.7708V87.8125C36.7513 89.3404 35.5084 90.5833 33.9805 90.5833Z" fill="black"/>
<path d="M45.0612 96.9168H29.2279C27.6999 96.9168 26.457 95.6739 26.457 94.146V89.396C26.457 88.7405 26.989 88.2085 27.6445 88.2085C28.3 88.2085 28.832 88.7405 28.832 89.396V94.146C28.832 94.3613 29.0125 94.5418 29.2279 94.5418H45.0612C45.2765 94.5418 45.457 94.3613 45.457 94.146V79.1043C45.457 78.889 45.2765 78.7085 45.0612 78.7085H35.5612C34.9057 78.7085 34.3737 78.1765 34.3737 77.521C34.3737 76.8655 34.9057 76.3335 35.5612 76.3335H45.0612C46.5891 76.3335 47.832 77.5764 47.832 79.1043V94.146C47.832 95.6739 46.5891 96.9168 45.0612 96.9168Z" fill="black"/>
<g clip-path="url(#clip1_2673_855)">
<path d="M131.675 101.293C130.936 101.293 130.239 101.005 129.717 100.481L118.519 89.2849C117.995 88.7608 117.707 88.0658 117.707 87.3263C117.707 86.5869 117.995 85.8903 118.519 85.3678L119.271 84.6141C120.095 83.7908 121.187 83.3379 122.351 83.3379H124.205C124.734 83.3379 125.231 83.1321 125.603 82.7584L130.143 78.219C130.595 77.7662 130.751 77.1091 130.548 76.5027C130.06 75.0365 130.435 73.4468 131.528 72.3559L133.075 70.809C134.156 69.7292 135.912 69.7276 136.994 70.809L148.189 82.0048C149.271 83.0846 149.271 84.8437 148.189 85.9235L146.642 87.4704C145.55 88.5629 143.959 88.9366 142.496 88.4505C141.889 88.2494 141.232 88.403 140.779 88.8558L136.24 93.3937C135.866 93.7673 135.66 94.2645 135.66 94.7933V96.6474C135.66 97.8112 135.208 98.9037 134.384 99.727L133.632 100.479C133.11 101.005 132.415 101.293 131.675 101.293ZM122.349 85.7145C121.821 85.7145 121.323 85.9203 120.95 86.294L120.199 87.0461C120.046 87.2013 120.046 87.4514 120.199 87.6066L131.395 98.8023C131.55 98.9575 131.8 98.9575 131.955 98.8023L132.708 98.0503C133.081 97.6766 133.287 97.1794 133.287 96.6506V94.7949C133.287 93.6312 133.74 92.5371 134.563 91.7153L139.101 87.1775C140.192 86.0834 141.78 85.7082 143.248 86.1974C143.854 86.3985 144.513 86.2433 144.964 85.7921L146.511 84.2452C146.666 84.09 146.666 83.8398 146.511 83.6847L135.315 72.4889C135.16 72.3338 134.91 72.3353 134.755 72.4889L133.206 74.0374C132.753 74.4903 132.598 75.1473 132.801 75.7538C133.29 77.2199 132.915 78.808 131.821 79.9005L127.283 84.4383C126.463 85.2617 125.369 85.7145 124.205 85.7145H122.349Z" fill="black"/>
<path d="M112.187 108C111.883 108 111.579 107.884 111.347 107.652C110.884 107.188 110.884 106.436 111.348 105.972L124.126 93.2099C124.588 92.7476 125.342 92.746 125.806 93.2115C126.268 93.6754 126.268 94.4275 125.804 94.8914L113.026 107.653C112.795 107.884 112.491 108 112.187 108Z" fill="black"/>
</g>
<path d="M245.813 104.833H224.438C223.782 104.833 223.25 104.301 223.25 103.646C223.25 102.99 223.782 102.458 224.438 102.458H245.813C246.468 102.458 247 102.99 247 103.646C247 104.301 246.468 104.833 245.813 104.833Z" fill="black"/>
<path d="M212.562 104.833C212.25 104.833 211.948 104.711 211.723 104.485C211.432 104.193 211.313 103.774 211.406 103.373L213.132 96.0504C213.183 95.8351 213.292 95.6387 213.449 95.4836L235.281 73.651C236.624 72.3067 238.974 72.3036 240.32 73.651L242.558 75.8898C243.231 76.5627 243.602 77.4573 243.602 78.4089C243.602 79.3605 243.231 80.2566 242.558 80.928L220.726 102.759C220.569 102.916 220.373 103.025 220.159 103.076L212.836 104.801C212.744 104.824 212.652 104.833 212.562 104.833ZM215.366 96.9228L214.158 102.05L219.285 100.842L240.878 79.2481C241.103 79.0232 241.227 78.7256 241.227 78.4089C241.227 78.0922 241.103 77.793 240.878 77.5697L238.64 75.3293C238.192 74.8812 237.408 74.8812 236.961 75.3293L215.366 96.9228ZM219.885 101.92H219.901H219.885Z" fill="black"/>
<path d="M236.928 86.0642C236.624 86.0642 236.32 85.9486 236.089 85.7159L230.491 80.1172C230.027 79.6533 230.027 78.9012 230.491 78.4373C230.954 77.9734 231.707 77.9734 232.17 78.4373L237.769 84.036C238.233 84.4999 238.233 85.252 237.769 85.7159C237.536 85.9486 237.232 86.0642 236.928 86.0642Z" fill="black"/>
<path d="M41.8958 178H22.1042C19.7023 178 17.75 176.048 17.75 173.646V153.063C17.75 152.407 18.282 151.875 18.9375 151.875C19.593 151.875 20.125 152.407 20.125 153.063V173.646C20.125 174.737 21.0133 175.625 22.1042 175.625H41.8958C42.9868 175.625 43.875 174.737 43.875 173.646V153.063C43.875 152.407 44.407 151.875 45.0625 151.875C45.718 151.875 46.25 152.407 46.25 153.063V173.646C46.25 176.048 44.2978 178 41.8958 178Z" fill="black"/>
<path d="M48.2279 154.25H15.7695C15.114 154.25 14.582 153.718 14.582 153.063V149.104C14.582 146.702 16.5343 144.75 18.9362 144.75H45.0612C47.4631 144.75 49.4154 146.702 49.4154 149.104V153.063C49.4154 153.718 48.8834 154.25 48.2279 154.25ZM16.957 151.875H47.0404V149.104C47.0404 148.013 46.1521 147.125 45.0612 147.125H18.9362C17.8453 147.125 16.957 148.013 16.957 149.104V151.875Z" fill="black"/>
<path d="M38.7279 147.125C38.0724 147.125 37.5404 146.593 37.5404 145.938V142.771C37.5404 142.552 37.363 142.375 37.1445 142.375H26.8529C26.6344 142.375 26.457 142.552 26.457 142.771V145.938C26.457 146.593 25.925 147.125 25.2695 147.125C24.614 147.125 24.082 146.593 24.082 145.938V142.771C24.082 141.243 25.3249 140 26.8529 140H37.1445C38.6724 140 39.9154 141.243 39.9154 142.771V145.938C39.9154 146.593 39.3834 147.125 38.7279 147.125Z" fill="black"/>
<path d="M32 171.667C31.3445 171.667 30.8125 171.135 30.8125 170.479V160.187C30.8125 159.532 31.3445 159 32 159C32.6555 159 33.1875 159.532 33.1875 160.187V170.479C33.1875 171.135 32.6555 171.667 32 171.667Z" fill="black"/>
<path d="M25.2695 171.667C24.614 171.667 24.082 171.135 24.082 170.479V160.187C24.082 159.532 24.614 159 25.2695 159C25.925 159 26.457 159.532 26.457 160.187V170.479C26.457 171.135 25.925 171.667 25.2695 171.667Z" fill="black"/>
<path d="M38.7305 171.667C38.075 171.667 37.543 171.135 37.543 170.479V160.187C37.543 159.532 38.075 159 38.7305 159C39.386 159 39.918 159.532 39.918 160.187V170.479C39.918 171.135 39.386 171.667 38.7305 171.667Z" fill="black"/>
<g clip-path="url(#clip2_2673_855)">
<path d="M144.646 178H115.354C112.952 178 111 176.048 111 173.646V166.521C111 165.865 111.532 165.333 112.188 165.333C112.843 165.333 113.375 165.865 113.375 166.521V173.646C113.375 174.737 114.263 175.625 115.354 175.625H144.646C145.737 175.625 146.625 174.737 146.625 173.646V166.521C146.625 165.865 147.157 165.333 147.812 165.333C148.468 165.333 149 165.865 149 166.521V173.646C149 176.048 147.048 178 144.646 178Z" fill="black"/>
<path d="M130 166.917C129.345 166.917 128.812 166.385 128.812 165.729V141.188C128.812 140.532 129.345 140 130 140C130.656 140 131.188 140.532 131.188 141.188V165.729C131.188 166.385 130.656 166.917 130 166.917Z" fill="black"/>
<path d="M136.332 148.709C136.028 148.709 135.724 148.593 135.493 148.36L129.999 142.868L124.504 148.36C124.04 148.824 123.288 148.824 122.824 148.36C122.361 147.896 122.361 147.144 122.824 146.68L129.158 140.347C129.622 139.883 130.374 139.883 130.838 140.347L137.171 146.68C137.635 147.144 137.635 147.896 137.171 148.36C136.94 148.593 136.636 148.709 136.332 148.709Z" fill="black"/>
</g>
<g clip-path="url(#clip3_2673_855)">
<path d="M217.505 177.207C217.089 177.207 216.675 177.077 216.322 176.822C215.665 176.345 215.358 175.527 215.537 174.737L217.982 163.968L209.691 156.698C209.082 156.166 208.849 155.323 209.099 154.552C209.349 153.783 210.03 153.238 210.836 153.164L221.805 152.168L226.142 142.019C226.462 141.273 227.19 140.792 227.999 140.792C228.808 140.792 229.537 141.273 229.857 142.017L234.193 152.168L245.161 153.164C245.969 153.237 246.649 153.783 246.9 154.552C247.15 155.322 246.919 156.166 246.309 156.698L238.019 163.967L240.463 174.735C240.642 175.527 240.335 176.345 239.678 176.82C239.023 177.295 238.149 177.332 237.458 176.917L227.999 171.264L218.541 176.92C218.221 177.11 217.864 177.207 217.505 177.207ZM227.999 168.829C228.359 168.829 228.715 168.926 229.035 169.116L237.962 174.455L235.655 164.291C235.49 163.568 235.736 162.813 236.294 162.323L244.122 155.458L233.766 154.517C233.02 154.449 232.379 153.981 232.088 153.294L227.999 143.716L223.906 153.295C223.618 153.978 222.977 154.446 222.233 154.514L211.875 155.455L219.703 162.32C220.263 162.811 220.509 163.565 220.342 164.29L218.037 174.453L226.964 169.116C227.284 168.926 227.64 168.829 227.999 168.829ZM221.721 152.364C221.721 152.364 221.721 152.366 221.72 152.367L221.721 152.364ZM234.274 152.359L234.276 152.363C234.276 152.361 234.276 152.361 234.274 152.359Z" fill="black"/>
</g>
<defs>
<clipPath id="clip0_2673_855">
<rect width="38" height="38" fill="white" transform="translate(13)"/>
</clipPath>
<clipPath id="clip1_2673_855">
<rect width="38" height="38" fill="white" transform="translate(111 70)"/>
</clipPath>
<clipPath id="clip2_2673_855">
<rect width="38" height="38" fill="white" transform="translate(111 140)"/>
</clipPath>
<clipPath id="clip3_2673_855">
<rect width="38" height="38" fill="white" transform="translate(209 140)"/>
</clipPath>
</defs>
</svg>
